<svg width="506" height="200" viewBox="0 0 506 200" fill="none" xmlns="http://www.w3.org/2000/svg">
  <style type="text/css">
    #dash {
    stroke: #000;
    stroke-width: 0.4;
    fill: none;
    stroke-dasharray: 200;
    stroke-dashoffset: 100;
    animation: dash 7s linear alternate infinite;
    }


    @keyframes dash {
    from {
    stroke-dashoffset: 200;
    }
    to {
    stroke-dashoffset: 0;
    }
    }
  </style>
  
<path id="dash" d="M81.4453 0C85.5469 0 89.7135 0.488281 93.9453 1.46484C98.2422 2.44141 102.116 4.13411 105.566 6.54297C109.017 8.95182 111.849 12.207 114.062 16.3086C116.276 20.4102 117.383 25.5859 117.383 31.8359C117.383 36.7188 116.634 41.1133 115.137 45.0195C113.704 48.9258 111.816 52.4089 109.473 55.4688C107.129 58.5286 104.492 61.2305 101.562 63.5742C98.6328 65.8529 95.7031 67.806 92.7734 69.4336C89.8438 71.0612 87.0443 72.4284 84.375 73.5352C81.7708 74.5768 79.5898 75.3906 77.832 75.9766C80.5013 75.9766 83.724 76.3021 87.5 76.9531C91.3411 77.5391 95.3451 78.5807 99.5117 80.0781C103.743 81.5755 107.91 83.5938 112.012 86.1328C116.113 88.6719 119.792 91.8945 123.047 95.8008C126.367 99.707 129.036 104.362 131.055 109.766C133.138 115.104 134.18 121.322 134.18 128.418C134.18 134.668 133.496 140.267 132.129 145.215C130.762 150.163 128.906 154.557 126.562 158.398C124.219 162.24 121.517 165.56 118.457 168.359C115.397 171.159 112.174 173.503 108.789 175.391C105.404 177.279 101.953 178.743 98.4375 179.785C94.987 180.827 91.6992 181.51 88.5742 181.836C85.1888 182.227 82.0312 182.487 79.1016 182.617C76.1719 182.747 73.4701 182.812 70.9961 182.812C66.9596 182.812 63.2812 182.715 59.9609 182.52C56.6406 182.324 53.3203 182.227 50 182.227C45.7031 182.227 41.6667 182.65 37.8906 183.496C34.1146 184.408 30.6315 185.514 27.4414 186.816C24.2513 188.118 21.3216 189.551 18.6523 191.113C16.0482 192.676 13.6719 194.108 11.5234 195.41C9.4401 196.712 7.61719 197.786 6.05469 198.633C4.55729 199.544 3.28776 200 2.24609 200C0.748698 200 0 199.186 0 197.559C0 196.322 0.651042 195.085 1.95312 193.848C3.32031 192.611 5.04557 191.309 7.12891 189.941C9.21224 188.574 11.4909 187.142 13.9648 185.645C16.5039 184.147 18.9128 182.52 21.1914 180.762C22.6237 179.655 23.9258 178.451 25.0977 177.148C26.3346 175.846 27.4089 174.349 28.3203 172.656C29.2969 171.029 30.0781 169.141 30.6641 166.992C31.3151 164.779 31.8359 162.24 32.2266 159.375C32.7474 155.339 33.1055 150.326 33.3008 144.336C33.4961 138.346 33.5938 131.641 33.5938 124.219C33.5938 120.312 33.6263 115.625 33.6914 110.156C33.7565 104.688 33.7891 98.8932 33.7891 92.7734C33.7891 86.4583 33.724 80.013 33.5938 73.4375C33.4635 66.862 33.1706 60.612 32.7148 54.6875C32.3242 48.6979 31.7383 43.2617 30.957 38.3789C30.2409 33.4961 29.2643 29.6224 28.0273 26.7578C26.9206 24.2188 25.5859 22.0703 24.0234 20.3125C22.526 18.4896 20.8008 16.9922 18.8477 15.8203C16.9596 14.5833 14.9089 13.6068 12.6953 12.8906C10.5469 12.1745 8.30078 11.6211 5.95703 11.2305C4.26432 10.9049 3.125 10.5469 2.53906 10.1562C2.01823 9.70052 1.75781 9.17969 1.75781 8.59375C1.75781 8.00781 1.98568 7.61719 2.44141 7.42188C2.96224 7.16146 3.61328 7.03125 4.39453 7.03125C5.56641 7.03125 6.80339 7.12891 8.10547 7.32422C9.40755 7.45443 10.9049 7.61719 12.5977 7.8125C14.3555 8.00781 16.3086 8.20312 18.457 8.39844C20.6055 8.52865 23.112 8.59375 25.9766 8.59375C31.901 8.59375 37.1419 8.17057 41.6992 7.32422C46.3216 6.41276 50.6836 5.4362 54.7852 4.39453C58.9518 3.28776 63.1185 2.27865 67.2852 1.36719C71.5169 0.455729 76.237 0 81.4453 0ZM48.0469 10.8398C48.2422 13.7695 48.4375 16.9596 48.6328 20.4102C48.8281 23.8607 49.056 27.4414 49.3164 31.1523C49.5768 34.7982 49.8047 38.5091 50 42.2852C50.2604 45.9961 50.5208 49.5768 50.7812 53.0273C51.3021 61.1654 51.8555 69.4336 52.4414 77.832C59.9935 77.3112 66.7643 75.6836 72.7539 72.9492C75.293 71.7773 77.7669 70.3125 80.1758 68.5547C82.6497 66.7969 84.8307 64.6484 86.7188 62.1094C88.6719 59.5703 90.2344 56.6081 91.4062 53.2227C92.5781 49.7721 93.1641 45.8333 93.1641 41.4062C93.1641 35.026 92.3828 29.7201 90.8203 25.4883C89.2578 21.2565 87.1745 17.8711 84.5703 15.332C81.9661 12.793 78.9388 11.0026 75.4883 9.96094C72.0378 8.91927 68.4245 8.39844 64.6484 8.39844C61.5234 8.39844 58.5286 8.6263 55.6641 9.08203C52.8646 9.53776 50.3255 10.1237 48.0469 10.8398ZM52.832 84.9609C53.0273 88.6068 53.2552 92.7083 53.5156 97.2656C53.8411 101.823 54.1667 106.478 54.4922 111.23C54.8177 115.983 55.1432 120.736 55.4688 125.488C55.8594 130.176 56.1849 134.538 56.4453 138.574C56.7708 142.611 57.0638 146.191 57.3242 149.316C57.5846 152.376 57.8125 154.655 58.0078 156.152C58.3333 159.408 58.9193 162.402 59.7656 165.137C60.6771 167.871 61.9141 170.215 63.4766 172.168C65.0391 174.121 66.9922 175.651 69.3359 176.758C71.6797 177.865 74.5117 178.418 77.832 178.418C82.3893 178.418 86.5885 177.474 90.4297 175.586C94.3359 173.763 97.6888 170.898 100.488 166.992C103.353 163.086 105.566 158.171 107.129 152.246C108.757 146.257 109.57 139.16 109.57 130.957C109.57 123.014 108.561 116.016 106.543 109.961C104.59 103.841 101.855 98.7305 98.3398 94.6289C94.8242 90.4622 90.6576 87.3372 85.8398 85.2539C81.0872 83.1055 75.8789 82.0312 70.2148 82.0312C66.6992 82.0312 63.3464 82.3242 60.1562 82.9102C56.9661 83.4961 54.5247 84.1797 52.832 84.9609ZM240.137 58.3984C241.504 58.3984 243.262 58.6263 245.41 59.082C247.559 59.5378 250.065 60.0911 252.93 60.7422C255.794 61.3932 258.984 62.0443 262.5 62.6953C266.016 63.2812 269.824 63.7044 273.926 63.9648C277.962 64.2904 281.445 64.5182 284.375 64.6484C287.37 64.7786 290.007 64.8438 292.285 64.8438C294.564 64.8438 296.68 64.8112 298.633 64.7461C300.586 64.681 302.669 64.6484 304.883 64.6484C306.576 64.6484 307.715 64.9414 308.301 65.5273C308.952 66.1133 309.277 66.862 309.277 67.7734C309.277 68.4896 309.115 69.2383 308.789 70.0195C308.529 70.8008 308.301 71.4518 308.105 71.9727C307.975 72.2331 307.324 73.5677 306.152 75.9766C305.046 78.3854 303.581 81.4779 301.758 85.2539C300 89.0299 297.982 93.3268 295.703 98.1445C293.49 102.897 291.178 107.78 288.77 112.793C286.426 117.806 284.115 122.754 281.836 127.637C279.557 132.454 277.507 136.849 275.684 140.82C273.861 144.727 272.331 148.014 271.094 150.684C269.857 153.288 269.141 154.85 268.945 155.371C268.815 155.697 268.685 156.055 268.555 156.445C268.49 156.771 268.457 157.031 268.457 157.227C268.457 158.138 268.913 158.659 269.824 158.789C270.736 158.919 271.68 158.984 272.656 158.984C274.609 158.984 277.051 158.887 279.98 158.691C282.91 158.431 285.872 158.105 288.867 157.715C291.927 157.324 294.824 156.901 297.559 156.445C300.293 155.924 302.474 155.371 304.102 154.785C306.315 154.004 308.138 152.962 309.57 151.66C311.068 150.293 312.272 148.828 313.184 147.266C314.095 145.703 314.779 144.076 315.234 142.383C315.755 140.69 316.178 139.03 316.504 137.402C316.699 136.556 316.895 135.579 317.09 134.473C317.285 133.366 317.513 132.324 317.773 131.348C318.034 130.371 318.327 129.557 318.652 128.906C319.043 128.19 319.466 127.832 319.922 127.832C320.573 127.832 320.964 128.581 321.094 130.078C321.224 131.576 321.289 133.203 321.289 134.961C321.289 135.872 321.257 137.305 321.191 139.258C321.191 141.146 321.159 143.164 321.094 145.312C321.094 147.461 321.029 149.544 320.898 151.562C320.833 153.581 320.768 155.111 320.703 156.152C320.508 158.887 320.085 160.938 319.434 162.305C318.783 163.672 317.546 164.355 315.723 164.355C312.207 164.355 308.236 164.258 303.809 164.062C299.447 163.867 294.954 163.77 290.332 163.77C287.793 163.77 285.124 163.802 282.324 163.867C279.59 163.867 276.66 163.965 273.535 164.16C268.327 164.486 263.802 164.909 259.961 165.43C256.185 165.885 252.865 166.374 250 166.895C247.201 167.35 244.792 167.741 242.773 168.066C240.755 168.392 238.932 168.555 237.305 168.555C235.872 168.555 234.863 168.359 234.277 167.969C233.757 167.513 233.496 166.927 233.496 166.211C233.496 165.104 234.017 163.704 235.059 162.012C242.285 150.423 248.73 139.876 254.395 130.371C260.059 120.866 265.039 112.337 269.336 104.785C273.633 97.168 277.279 90.4948 280.273 84.7656C283.268 78.9714 285.677 74.056 287.5 70.0195C285.872 69.7591 284.082 69.5312 282.129 69.3359C280.241 69.0755 278.255 68.8802 276.172 68.75C274.154 68.5547 272.103 68.4245 270.02 68.3594C268.001 68.2292 266.081 68.1641 264.258 68.1641C262.565 68.1641 261.003 68.2292 259.57 68.3594C258.138 68.4245 256.901 68.5872 255.859 68.8477C253.646 69.2383 251.693 70.1172 250 71.4844C248.372 72.7865 246.908 74.5117 245.605 76.6602C244.368 78.8086 243.229 81.3802 242.188 84.375C241.211 87.3047 240.299 90.5924 239.453 94.2383C239.128 95.8008 238.802 97.3633 238.477 98.9258C238.151 100.488 237.793 101.921 237.402 103.223C237.077 104.525 236.686 105.599 236.23 106.445C235.775 107.227 235.254 107.617 234.668 107.617C234.277 107.617 233.919 107.389 233.594 106.934C233.268 106.413 233.105 105.501 233.105 104.199C233.105 103.743 233.138 102.702 233.203 101.074C233.333 99.3815 233.464 97.4935 233.594 95.4102C233.789 93.3268 233.952 91.2109 234.082 89.0625C234.212 86.9141 234.342 85.1562 234.473 83.7891L235.547 63.9648C235.677 61.7513 236.1 60.2865 236.816 59.5703C237.533 58.7891 238.639 58.3984 240.137 58.3984ZM424.512 58.3984C425.879 58.3984 427.637 58.6263 429.785 59.082C431.934 59.5378 434.44 60.0911 437.305 60.7422C440.169 61.3932 443.359 62.0443 446.875 62.6953C450.391 63.2812 454.199 63.7044 458.301 63.9648C462.337 64.2904 465.82 64.5182 468.75 64.6484C471.745 64.7786 474.382 64.8438 476.66 64.8438C478.939 64.8438 481.055 64.8112 483.008 64.7461C484.961 64.681 487.044 64.6484 489.258 64.6484C490.951 64.6484 492.09 64.9414 492.676 65.5273C493.327 66.1133 493.652 66.862 493.652 67.7734C493.652 68.4896 493.49 69.2383 493.164 70.0195C492.904 70.8008 492.676 71.4518 492.48 71.9727C492.35 72.2331 491.699 73.5677 490.527 75.9766C489.421 78.3854 487.956 81.4779 486.133 85.2539C484.375 89.0299 482.357 93.3268 480.078 98.1445C477.865 102.897 475.553 107.78 473.145 112.793C470.801 117.806 468.49 122.754 466.211 127.637C463.932 132.454 461.882 136.849 460.059 140.82C458.236 144.727 456.706 148.014 455.469 150.684C454.232 153.288 453.516 154.85 453.32 155.371C453.19 155.697 453.06 156.055 452.93 156.445C452.865 156.771 452.832 157.031 452.832 157.227C452.832 158.138 453.288 158.659 454.199 158.789C455.111 158.919 456.055 158.984 457.031 158.984C458.984 158.984 461.426 158.887 464.355 158.691C467.285 158.431 470.247 158.105 473.242 157.715C476.302 157.324 479.199 156.901 481.934 156.445C484.668 155.924 486.849 155.371 488.477 154.785C490.69 154.004 492.513 152.962 493.945 151.66C495.443 150.293 496.647 148.828 497.559 147.266C498.47 145.703 499.154 144.076 499.609 142.383C500.13 140.69 500.553 139.03 500.879 137.402C501.074 136.556 501.27 135.579 501.465 134.473C501.66 133.366 501.888 132.324 502.148 131.348C502.409 130.371 502.702 129.557 503.027 128.906C503.418 128.19 503.841 127.832 504.297 127.832C504.948 127.832 505.339 128.581 505.469 130.078C505.599 131.576 505.664 133.203 505.664 134.961C505.664 135.872 505.632 137.305 505.566 139.258C505.566 141.146 505.534 143.164 505.469 145.312C505.469 147.461 505.404 149.544 505.273 151.562C505.208 153.581 505.143 155.111 505.078 156.152C504.883 158.887 504.46 160.938 503.809 162.305C503.158 163.672 501.921 164.355 500.098 164.355C496.582 164.355 492.611 164.258 488.184 164.062C483.822 163.867 479.329 163.77 474.707 163.77C472.168 163.77 469.499 163.802 466.699 163.867C463.965 163.867 461.035 163.965 457.91 164.16C452.702 164.486 448.177 164.909 444.336 165.43C440.56 165.885 437.24 166.374 434.375 166.895C431.576 167.35 429.167 167.741 427.148 168.066C425.13 168.392 423.307 168.555 421.68 168.555C420.247 168.555 419.238 168.359 418.652 167.969C418.132 167.513 417.871 166.927 417.871 166.211C417.871 165.104 418.392 163.704 419.434 162.012C426.66 150.423 433.105 139.876 438.77 130.371C444.434 120.866 449.414 112.337 453.711 104.785C458.008 97.168 461.654 90.4948 464.648 84.7656C467.643 78.9714 470.052 74.056 471.875 70.0195C470.247 69.7591 468.457 69.5312 466.504 69.3359C464.616 69.0755 462.63 68.8802 460.547 68.75C458.529 68.5547 456.478 68.4245 454.395 68.3594C452.376 68.2292 450.456 68.1641 448.633 68.1641C446.94 68.1641 445.378 68.2292 443.945 68.3594C442.513 68.4245 441.276 68.5872 440.234 68.8477C438.021 69.2383 436.068 70.1172 434.375 71.4844C432.747 72.7865 431.283 74.5117 429.98 76.6602C428.743 78.8086 427.604 81.3802 426.562 84.375C425.586 87.3047 424.674 90.5924 423.828 94.2383C423.503 95.8008 423.177 97.3633 422.852 98.9258C422.526 100.488 422.168 101.921 421.777 103.223C421.452 104.525 421.061 105.599 420.605 106.445C420.15 107.227 419.629 107.617 419.043 107.617C418.652 107.617 418.294 107.389 417.969 106.934C417.643 106.413 417.48 105.501 417.48 104.199C417.48 103.743 417.513 102.702 417.578 101.074C417.708 99.3815 417.839 97.4935 417.969 95.4102C418.164 93.3268 418.327 91.2109 418.457 89.0625C418.587 86.9141 418.717 85.1562 418.848 83.7891L419.922 63.9648C420.052 61.7513 420.475 60.2865 421.191 59.5703C421.908 58.7891 423.014 58.3984 424.512 58.3984Z" fill="white"/>
<path d="M147.949 58.3984C149.316 58.3984 151.074 58.6263 153.223 59.082C155.371 59.5378 157.878 60.0911 160.742 60.7422C163.607 61.3932 166.797 62.0443 170.312 62.6953C173.828 63.2812 177.637 63.7044 181.738 63.9648C185.775 64.2904 189.258 64.5182 192.188 64.6484C195.182 64.7786 197.819 64.8438 200.098 64.8438C202.376 64.8438 204.492 64.8112 206.445 64.7461C208.398 64.681 210.482 64.6484 212.695 64.6484C214.388 64.6484 215.527 64.9414 216.113 65.5273C216.764 66.1133 217.09 66.862 217.09 67.7734C217.09 68.4896 216.927 69.2383 216.602 70.0195C216.341 70.8008 216.113 71.4518 215.918 71.9727C215.788 72.2331 215.137 73.5677 213.965 75.9766C212.858 78.3854 211.393 81.4779 209.57 85.2539C207.812 89.0299 205.794 93.3268 203.516 98.1445C201.302 102.897 198.991 107.78 196.582 112.793C194.238 117.806 191.927 122.754 189.648 127.637C187.37 132.454 185.319 136.849 183.496 140.82C181.673 144.727 180.143 148.014 178.906 150.684C177.669 153.288 176.953 154.85 176.758 155.371C176.628 155.697 176.497 156.055 176.367 156.445C176.302 156.771 176.27 157.031 176.27 157.227C176.27 158.138 176.725 158.659 177.637 158.789C178.548 158.919 179.492 158.984 180.469 158.984C182.422 158.984 184.863 158.887 187.793 158.691C190.723 158.431 193.685 158.105 196.68 157.715C199.74 157.324 202.637 156.901 205.371 156.445C208.105 155.924 210.286 155.371 211.914 154.785C214.128 154.004 215.951 152.962 217.383 151.66C218.88 150.293 220.085 148.828 220.996 147.266C221.908 145.703 222.591 144.076 223.047 142.383C223.568 140.69 223.991 139.03 224.316 137.402C224.512 136.556 224.707 135.579 224.902 134.473C225.098 133.366 225.326 132.324 225.586 131.348C225.846 130.371 226.139 129.557 226.465 128.906C226.855 128.19 227.279 127.832 227.734 127.832C228.385 127.832 228.776 128.581 228.906 130.078C229.036 131.576 229.102 133.203 229.102 134.961C229.102 135.872 229.069 137.305 229.004 139.258C229.004 141.146 228.971 143.164 228.906 145.312C228.906 147.461 228.841 149.544 228.711 151.562C228.646 153.581 228.581 155.111 228.516 156.152C228.32 158.887 227.897 160.938 227.246 162.305C226.595 163.672 225.358 164.355 223.535 164.355C220.02 164.355 216.048 164.258 211.621 164.062C207.259 163.867 202.767 163.77 198.145 163.77C195.605 163.77 192.936 163.802 190.137 163.867C187.402 163.867 184.473 163.965 181.348 164.16C176.139 164.486 171.615 164.909 167.773 165.43C163.997 165.885 160.677 166.374 157.812 166.895C155.013 167.35 152.604 167.741 150.586 168.066C148.568 168.392 146.745 168.555 145.117 168.555C143.685 168.555 142.676 168.359 142.09 167.969C141.569 167.513 141.309 166.927 141.309 166.211C141.309 165.104 141.829 163.704 142.871 162.012C150.098 150.423 156.543 139.876 162.207 130.371C167.871 120.866 172.852 112.337 177.148 104.785C181.445 97.168 185.091 90.4948 188.086 84.7656C191.081 78.9714 193.49 74.056 195.312 70.0195C193.685 69.7591 191.895 69.5312 189.941 69.3359C188.053 69.0755 186.068 68.8802 183.984 68.75C181.966 68.5547 179.915 68.4245 177.832 68.3594C175.814 68.2292 173.893 68.1641 172.07 68.1641C170.378 68.1641 168.815 68.2292 167.383 68.3594C165.951 68.4245 164.714 68.5872 163.672 68.8477C161.458 69.2383 159.505 70.1172 157.812 71.4844C156.185 72.7865 154.72 74.5117 153.418 76.6602C152.181 78.8086 151.042 81.3802 150 84.375C149.023 87.3047 148.112 90.5924 147.266 94.2383C146.94 95.8008 146.615 97.3633 146.289 98.9258C145.964 100.488 145.605 101.921 145.215 103.223C144.889 104.525 144.499 105.599 144.043 106.445C143.587 107.227 143.066 107.617 142.48 107.617C142.09 107.617 141.732 107.389 141.406 106.934C141.081 106.413 140.918 105.501 140.918 104.199C140.918 103.743 140.951 102.702 141.016 101.074C141.146 99.3815 141.276 97.4935 141.406 95.4102C141.602 93.3268 141.764 91.2109 141.895 89.0625C142.025 86.9141 142.155 85.1562 142.285 83.7891L143.359 63.9648C143.49 61.7513 143.913 60.2865 144.629 59.5703C145.345 58.7891 146.452 58.3984 147.949 58.3984ZM332.324 58.3984C333.691 58.3984 335.449 58.6263 337.598 59.082C339.746 59.5378 342.253 60.0911 345.117 60.7422C347.982 61.3932 351.172 62.0443 354.688 62.6953C358.203 63.2812 362.012 63.7044 366.113 63.9648C370.15 64.2904 373.633 64.5182 376.562 64.6484C379.557 64.7786 382.194 64.8438 384.473 64.8438C386.751 64.8438 388.867 64.8112 390.82 64.7461C392.773 64.681 394.857 64.6484 397.07 64.6484C398.763 64.6484 399.902 64.9414 400.488 65.5273C401.139 66.1133 401.465 66.862 401.465 67.7734C401.465 68.4896 401.302 69.2383 400.977 70.0195C400.716 70.8008 400.488 71.4518 400.293 71.9727C400.163 72.2331 399.512 73.5677 398.34 75.9766C397.233 78.3854 395.768 81.4779 393.945 85.2539C392.188 89.0299 390.169 93.3268 387.891 98.1445C385.677 102.897 383.366 107.78 380.957 112.793C378.613 117.806 376.302 122.754 374.023 127.637C371.745 132.454 369.694 136.849 367.871 140.82C366.048 144.727 364.518 148.014 363.281 150.684C362.044 153.288 361.328 154.85 361.133 155.371C361.003 155.697 360.872 156.055 360.742 156.445C360.677 156.771 360.645 157.031 360.645 157.227C360.645 158.138 361.1 158.659 362.012 158.789C362.923 158.919 363.867 158.984 364.844 158.984C366.797 158.984 369.238 158.887 372.168 158.691C375.098 158.431 378.06 158.105 381.055 157.715C384.115 157.324 387.012 156.901 389.746 156.445C392.48 155.924 394.661 155.371 396.289 154.785C398.503 154.004 400.326 152.962 401.758 151.66C403.255 150.293 404.46 148.828 405.371 147.266C406.283 145.703 406.966 144.076 407.422 142.383C407.943 140.69 408.366 139.03 408.691 137.402C408.887 136.556 409.082 135.579 409.277 134.473C409.473 133.366 409.701 132.324 409.961 131.348C410.221 130.371 410.514 129.557 410.84 128.906C411.23 128.19 411.654 127.832 412.109 127.832C412.76 127.832 413.151 128.581 413.281 130.078C413.411 131.576 413.477 133.203 413.477 134.961C413.477 135.872 413.444 137.305 413.379 139.258C413.379 141.146 413.346 143.164 413.281 145.312C413.281 147.461 413.216 149.544 413.086 151.562C413.021 153.581 412.956 155.111 412.891 156.152C412.695 158.887 412.272 160.938 411.621 162.305C410.97 163.672 409.733 164.355 407.91 164.355C404.395 164.355 400.423 164.258 395.996 164.062C391.634 163.867 387.142 163.77 382.52 163.77C379.98 163.77 377.311 163.802 374.512 163.867C371.777 163.867 368.848 163.965 365.723 164.16C360.514 164.486 355.99 164.909 352.148 165.43C348.372 165.885 345.052 166.374 342.188 166.895C339.388 167.35 336.979 167.741 334.961 168.066C332.943 168.392 331.12 168.555 329.492 168.555C328.06 168.555 327.051 168.359 326.465 167.969C325.944 167.513 325.684 166.927 325.684 166.211C325.684 165.104 326.204 163.704 327.246 162.012C334.473 150.423 340.918 139.876 346.582 130.371C352.246 120.866 357.227 112.337 361.523 104.785C365.82 97.168 369.466 90.4948 372.461 84.7656C375.456 78.9714 377.865 74.056 379.688 70.0195C378.06 69.7591 376.27 69.5312 374.316 69.3359C372.428 69.0755 370.443 68.8802 368.359 68.75C366.341 68.5547 364.29 68.4245 362.207 68.3594C360.189 68.2292 358.268 68.1641 356.445 68.1641C354.753 68.1641 353.19 68.2292 351.758 68.3594C350.326 68.4245 349.089 68.5872 348.047 68.8477C345.833 69.2383 343.88 70.1172 342.188 71.4844C340.56 72.7865 339.095 74.5117 337.793 76.6602C336.556 78.8086 335.417 81.3802 334.375 84.375C333.398 87.3047 332.487 90.5924 331.641 94.2383C331.315 95.8008 330.99 97.3633 330.664 98.9258C330.339 100.488 329.98 101.921 329.59 103.223C329.264 104.525 328.874 105.599 328.418 106.445C327.962 107.227 327.441 107.617 326.855 107.617C326.465 107.617 326.107 107.389 325.781 106.934C325.456 106.413 325.293 105.501 325.293 104.199C325.293 103.743 325.326 102.702 325.391 101.074C325.521 99.3815 325.651 97.4935 325.781 95.4102C325.977 93.3268 326.139 91.2109 326.27 89.0625C326.4 86.9141 326.53 85.1562 326.66 83.7891L327.734 63.9648C327.865 61.7513 328.288 60.2865 329.004 59.5703C329.72 58.7891 330.827 58.3984 332.324 58.3984Z" fill="black"/>
</svg>
